<?xml version="1.0" standalone="no"?>
<!DOCTYPE svg PUBLIC "-//W3C//DTD SVG 20010904//EN"
 "http://www.w3.org/TR/2001/REC-SVG-20010904/DTD/svg10.dtd">
<svg version="1.0" xmlns="http://www.w3.org/2000/svg"
 width="512.000000pt" height="512.000000pt" viewBox="0 0 512.000000 512.000000"
 preserveAspectRatio="xMidYMid meet">

<g transform="translate(0.000000,512.000000) scale(0.100000,-0.100000)"
fill="#000000" stroke="none">
<path d="M2070 5105 c-141 -35 -249 -110 -350 -244 l-26 -34 -52 12 c-76 16
-209 14 -273 -5 -80 -24 -126 -50 -185 -106 -93 -88 -146 -192 -160 -318 -6
-59 -7 -60 -38 -60 -17 0 -65 -9 -106 -21 -358 -99 -540 -473 -425 -874 5 -17
-6 -26 -73 -57 -254 -122 -398 -373 -378 -659 11 -162 75 -312 181 -427 l62
-67 -47 -53 c-62 -70 -96 -134 -120 -228 -35 -138 -20 -274 45 -410 61 -127
197 -243 313 -269 17 -3 32 -9 32 -13 0 -3 -7 -44 -16 -91 -21 -111 -14 -258
16 -356 36 -114 78 -183 165 -271 137 -138 292 -198 505 -197 83 1 137 7 194
22 44 12 80 21 81 21 1 0 17 -30 36 -67 49 -99 171 -219 269 -266 199 -94 417
-86 599 20 77 45 164 128 210 200 l34 52 37 -57 c53 -82 156 -174 242 -216
176 -87 372 -86 558 1 98 47 220 167 269 265 19 38 35 68 36 68 1 0 37 -9 81
-21 57 -15 111 -21 194 -22 139 -1 220 17 339 75 68 32 101 57 166 122 87 88
129 157 165 271 30 98 37 245 16 356 -9 47 -16 88 -16 91 0 4 15 10 33 13 66
14 167 77 222 137 198 219 204 559 15 770 l-47 53 62 67 c148 160 213 393 171
608 -21 108 -88 246 -156 322 -56 63 -161 137 -240 170 -44 18 -51 24 -45 42
25 86 37 189 32 276 -11 190 -67 322 -186 440 -44 44 -101 89 -136 107 -66 35
-192 73 -240 73 -30 0 -31 1 -43 77 -30 193 -160 351 -330 403 -73 23 -200 27
-284 9 l-52 -12 -25 34 c-14 19 -54 63 -91 99 -200 198 -523 213 -699 31 l-45
-46 -42 42 c-108 107 -297 156 -454 118z m251 -172 c59 -26 115 -76 142 -127
l22 -41 3 -1853 2 -1853 -52 42 c-119 95 -290 146 -453 136 -108 -7 -233 -44
-302 -90 -43 -29 -48 -36 -51 -73 -3 -35 1 -45 24 -63 35 -28 53 -27 124 9
301 152 674 -8 705 -304 4 -40 1 -86 -9 -136 -56 -265 -261 -434 -506 -417
-195 14 -349 136 -410 326 -35 111 -56 118 -196 67 -293 -106 -589 -6 -713
241 -55 110 -65 297 -23 429 30 94 132 218 232 279 25 16 50 35 57 44 34 44
-7 121 -64 121 -59 0 -205 -110 -268 -200 -28 -41 -30 -42 -74 -35 -94 14
-192 89 -240 184 -49 95 -62 231 -31 333 15 52 67 125 122 171 l47 40 81 -17
c44 -9 122 -16 174 -16 79 0 97 3 120 21 20 16 26 29 26 58 0 64 -22 75 -164
82 -171 9 -237 32 -321 110 -115 108 -175 270 -162 434 20 226 164 392 400
460 65 19 92 48 84 92 -3 16 -17 62 -32 103 -24 65 -28 91 -29 195 -1 102 3
130 22 188 29 82 90 176 142 217 84 66 218 109 344 110 27 0 47 7 63 22 20 19
23 31 23 99 0 159 64 278 183 338 60 31 75 35 145 34 42 -1 94 -7 116 -15 37
-13 38 -14 42 -68 12 -174 78 -252 159 -188 25 19 27 26 22 67 -4 25 -11 66
-16 91 -13 59 -3 147 20 186 46 76 161 162 246 184 59 14 172 6 224 -17z m771
-12 c75 -35 163 -121 201 -197 14 -28 32 -56 41 -63 22 -19 64 -16 136 9 44
15 90 23 142 23 69 1 85 -3 145 -34 119 -60 183 -179 183 -337 0 -94 19 -122
84 -122 128 -1 262 -43 346 -110 88 -70 157 -216 167 -355 6 -90 -14 -214 -47
-287 -42 -92 -23 -125 93 -161 175 -55 298 -172 353 -337 23 -68 25 -232 5
-305 -36 -128 -127 -249 -236 -312 -97 -56 -95 -115 5 -177 152 -94 217 -254
176 -430 -43 -181 -170 -296 -328 -296 -102 0 -118 -35 -76 -170 117 -380 -57
-688 -419 -742 -93 -13 -199 0 -305 38 -142 51 -162 45 -198 -67 -61 -190
-215 -312 -410 -326 -185 -13 -359 85 -438 247 -47 95 -62 181 -62 358 l0 152
199 0 199 0 12 -30 c16 -39 72 -96 118 -119 212 -108 449 119 348 334 -12 28
-41 66 -63 86 -126 114 -334 70 -404 -85 l-12 -26 -199 0 -198 0 0 420 0 420
270 0 269 0 103 -40 103 -40 1 -92 c0 -72 6 -106 23 -150 31 -81 106 -159 189
-200 63 -31 73 -33 172 -33 96 0 110 3 165 29 196 97 275 337 173 528 -77 145
-252 232 -404 200 -80 -17 -156 -54 -202 -100 l-40 -40 -126 49 -126 49 -285
0 -285 0 0 245 0 245 584 0 584 0 17 -50 c36 -108 137 -204 252 -240 151 -46
290 -6 401 115 139 151 131 377 -19 527 -27 27 -75 61 -107 76 -50 24 -69 27
-162 27 -94 0 -111 -3 -161 -28 -82 -40 -142 -97 -177 -169 -17 -35 -33 -71
-36 -80 -5 -17 -42 -18 -591 -18 l-585 0 0 235 0 235 285 0 285 0 125 50 125
50 41 -40 c145 -141 375 -142 529 -3 198 178 148 509 -95 629 -55 26 -69 29
-165 29 -99 0 -109 -2 -172 -33 -83 -41 -158 -119 -189 -200 -17 -44 -23 -78
-23 -150 l-1 -92 -103 -40 -103 -40 -269 0 -270 0 0 395 0 395 168 0 167 0 27
-49 c98 -178 355 -174 450 8 66 127 16 281 -114 345 -128 64 -284 9 -346 -121
l-16 -33 -169 0 -168 0 3 238 c3 222 4 240 25 278 29 55 96 111 153 129 73 24
184 14 262 -24z m209 -630 c21 -22 29 -39 29 -66 0 -51 -44 -95 -95 -95 -27 0
-44 8 -66 29 -21 22 -29 39 -29 66 0 27 8 44 29 66 22 21 39 29 66 29 27 0 44
-8 66 -29z m567 -547 c119 -49 169 -198 106 -315 -79 -144 -290 -155 -381 -20
-102 151 0 351 180 351 32 0 74 -7 95 -16z m420 -890 c84 -35 136 -115 136
-209 -1 -91 -46 -163 -128 -201 -63 -29 -126 -30 -186 -3 -90 40 -133 107
-134 204 0 93 51 173 134 209 46 20 131 20 178 0z m-441 -899 c94 -28 153
-110 153 -212 -1 -133 -91 -223 -225 -223 -146 0 -253 138 -216 276 21 78 71
132 147 159 51 18 79 18 141 0z m-512 -870 c52 -25 68 -80 40 -134 -42 -83
-175 -49 -175 44 0 46 13 71 48 89 35 19 47 19 87 1z"/>
<path d="M1941 4194 c-75 -20 -140 -57 -219 -126 -79 -68 -134 -98 -185 -98
-51 0 -78 13 -136 64 -55 49 -83 56 -119 30 -76 -53 -24 -151 118 -225 37 -19
61 -24 130 -24 75 0 93 4 150 31 36 17 94 57 130 89 126 110 215 135 339 94
l71 -23 28 21 c59 44 52 107 -15 141 -82 42 -196 52 -292 26z"/>
<path d="M1865 3715 c-54 -53 -23 -119 62 -135 69 -12 106 -32 134 -71 23 -33
36 -110 25 -153 -15 -59 -103 -125 -169 -126 -36 0 -77 -41 -77 -75 0 -16 12
-39 30 -57 29 -29 34 -30 83 -24 110 15 210 82 262 178 39 71 47 190 19 270
-27 76 -119 168 -197 197 -80 29 -141 28 -172 -4z"/>
<path d="M900 3388 c-32 -17 -47 -59 -34 -95 7 -22 30 -38 104 -75 107 -52
178 -114 234 -200 30 -48 77 -161 76 -185 0 -4 -19 -16 -41 -26 -113 -53 -243
-188 -243 -254 0 -43 32 -73 77 -73 25 0 44 14 106 79 123 127 264 178 417
152 208 -37 357 -191 386 -401 14 -102 33 -130 89 -130 46 0 79 36 79 87 0
113 -64 286 -138 375 -125 149 -284 227 -477 233 l-100 3 -16 54 c-50 168
-192 338 -349 416 -98 49 -135 58 -170 40z"/>
<path d="M1494 2202 c-124 -90 -192 -252 -166 -394 33 -179 163 -308 341 -339
72 -13 153 -2 231 32 55 24 73 47 72 92 -2 62 -58 89 -126 58 -102 -45 -202
-32 -277 36 -122 111 -112 291 22 387 50 35 64 69 48 108 -23 56 -84 64 -145
20z"/>
<path d="M3743 3610 c-47 -19 -57 -87 -18 -125 39 -40 96 -32 120 16 21 40 19
57 -14 90 -30 30 -50 34 -88 19z"/>
<path d="M4150 2702 c-35 -36 -38 -69 -9 -106 41 -52 139 -18 139 48 0 32 -37
73 -72 82 -22 5 -34 0 -58 -24z"/>
<path d="M3725 1795 c-47 -46 -23 -118 42 -131 27 -5 37 -1 64 25 26 27 30 37
25 64 -13 65 -85 89 -131 42z"/>
</g>
</svg>
