<?xml version="1.0" standalone="no"?>
<!DOCTYPE svg PUBLIC "-//W3C//DTD SVG 20010904//EN"
 "http://www.w3.org/TR/2001/REC-SVG-20010904/DTD/svg10.dtd">
<svg version="1.0" xmlns="http://www.w3.org/2000/svg"
 width="512.000000pt" height="512.000000pt" viewBox="0 0 512.000000 512.000000"
 preserveAspectRatio="xMidYMid meet">

<g transform="translate(0.000000,512.000000) scale(0.100000,-0.100000)"
fill="#000000" stroke="none">
<path d="M3578 5111 c-47 -15 -86 -49 -106 -94 -11 -23 -62 -217 -113 -432
l-92 -390 -186 -187 -186 -188 -431 0 c-245 0 -455 -4 -485 -10 -177 -33 -327
-179 -359 -349 -6 -33 -10 -329 -10 -775 0 -678 2 -723 19 -761 34 -75 122
-125 194 -110 59 13 114 52 135 97 19 41 21 71 27 768 7 723 8 740 40 740 42
0 40 71 45 -1647 l5 -1628 29 -43 c39 -57 101 -93 173 -99 111 -10 211 71 233
186 6 33 10 388 10 942 l0 889 45 0 45 0 2 -927 3 -928 22 -40 c28 -53 58 -79
117 -106 109 -48 235 3 287 116 18 38 19 111 19 1680 l0 1640 261 260 c143
143 267 273 275 288 21 40 224 883 224 931 0 56 -35 123 -81 153 -43 28 -114
39 -161 24z"/>
<path d="M1045 4987 c-179 -47 -295 -195 -295 -377 0 -217 167 -383 385 -383
170 1 293 86 361 250 60 146 5 340 -123 438 -90 68 -226 98 -328 72z"/>
<path d="M3970 4941 c0 -41 -23 -155 -70 -353 -39 -161 -73 -300 -76 -310 -4
-12 7 -20 43 -32 77 -24 114 -28 182 -17 349 56 448 505 155 703 -59 40 -100
55 -181 64 l-53 7 0 -62z"/>
<path d="M2445 4700 c-109 -35 -203 -126 -244 -235 -25 -66 -28 -177 -7 -246
36 -118 140 -222 254 -255 245 -71 485 96 500 347 16 271 -244 472 -503 389z"/>
<path d="M550 4089 c-122 -21 -252 -113 -312 -222 -59 -105 -59 -112 -56 -919
l3 -736 31 -39 c43 -55 107 -85 166 -80 61 5 121 45 148 97 20 38 20 57 20
750 0 471 3 718 10 731 12 21 54 26 67 7 4 -7 10 -743 13 -1635 l5 -1621 30
-43 c19 -27 51 -54 85 -72 49 -26 62 -28 119 -24 104 8 178 74 200 178 7 33
11 344 11 944 l0 895 45 0 45 0 2 -927 3 -928 22 -41 c64 -120 205 -159 319
-88 35 21 56 44 76 83 l28 53 0 625 0 624 -55 50 c-32 30 -65 73 -82 107 l-28
57 -3 750 c-3 843 -3 849 66 980 45 85 140 188 216 233 30 19 89 45 131 59
l76 26 -23 24 c-36 38 -157 93 -228 103 -83 12 -1077 11 -1150 -1z"/>
<path d="M3766 4034 c-25 -98 -38 -118 -162 -245 l-114 -117 0 -1580 c0 -1090
3 -1597 11 -1631 13 -63 43 -107 95 -144 95 -67 237 -38 307 61 l32 47 3 938
2 937 50 0 50 0 0 -914 c0 -1008 -3 -966 63 -1035 111 -117 300 -84 368 64 18
38 19 109 19 1642 0 881 3 1608 6 1617 9 22 51 20 64 -3 7 -13 10 -260 10
-731 0 -693 0 -712 20 -750 27 -52 87 -92 148 -97 59 -5 123 25 166 80 l31 39
3 736 c3 835 4 829 -69 939 -72 111 -180 182 -309 202 -36 6 -222 11 -421 11
l-357 0 -16 -66z"/>
<path d="M3308 3493 l-98 -98 0 -653 0 -652 23 1 c67 2 149 65 167 128 7 24
10 262 8 704 l-3 667 -97 -97z"/>
</g>
</svg>
